<svg width="60" height="40" viewBox="0 0 71 48" fill="none" xmlns="http://www.w3.org/2000/svg">
<path d="M62.1249 14.7916H47.3334V8.87512H62.1249V14.7916ZM63.6039 5.9165H45.8544C45.0395 5.9165 44.3748 6.58123 44.3748 7.39544V16.2705C44.3748 17.0855 45.0395 17.7502 45.8544 17.7502H63.6039C64.4188 17.7502 65.0836 17.0855 65.0836 16.2705V7.39544C65.0836 6.58123 64.4188 5.9165 63.6039 5.9165Z" fill="#000"/>
<path d="M63.6038 20.708C62.7896 20.708 62.1249 21.3727 62.1249 22.1869C62.1249 23.0019 62.7896 23.6666 63.6038 23.6666C64.4188 23.6666 65.0835 23.0019 65.0835 22.1869C65.0835 21.3727 64.4188 20.708 63.6038 20.708Z" fill="#000"/>
<path d="M57.6873 20.708C56.8731 20.708 56.2084 21.3727 56.2084 22.1869C56.2084 23.0019 56.8731 23.6666 57.6873 23.6666C58.5023 23.6666 59.167 23.0019 59.167 22.1869C59.167 21.3727 58.5023 20.708 57.6873 20.708Z" fill="#000"/>
<path d="M51.7709 20.708C50.9559 20.708 50.2919 21.3727 50.2919 22.1869C50.2919 23.0019 50.9559 23.6666 51.7709 23.6666C52.5858 23.6666 53.2498 23.0019 53.2498 22.1869C53.2498 21.3727 52.5858 20.708 51.7709 20.708Z" fill="#000"/>
<path d="M45.8544 20.708C45.0395 20.708 44.3748 21.3727 44.3748 22.1869C44.3748 23.0019 45.0395 23.6666 45.8544 23.6666C46.6686 23.6666 47.3334 23.0019 47.3334 22.1869C47.3334 21.3727 46.6686 20.708 45.8544 20.708Z" fill="#000"/>
<path d="M63.6038 26.6245C62.7896 26.6245 62.1249 27.2892 62.1249 28.1042C62.1249 28.9184 62.7896 29.5831 63.6038 29.5831C64.4188 29.5831 65.0835 28.9184 65.0835 28.1042C65.0835 27.2892 64.4188 26.6245 63.6038 26.6245Z" fill="#000"/>
<path d="M57.6873 26.6245C56.8731 26.6245 56.2084 27.2892 56.2084 28.1042C56.2084 28.9184 56.8731 29.5831 57.6873 29.5831C58.5023 29.5831 59.167 28.9184 59.167 28.1042C59.167 27.2892 58.5023 26.6245 57.6873 26.6245Z" fill="#000"/>
<path d="M51.7709 26.6245C50.9559 26.6245 50.2919 27.2892 50.2919 28.1042C50.2919 28.9184 50.9559 29.5831 51.7709 29.5831C52.5858 29.5831 53.2498 28.9184 53.2498 28.1042C53.2498 27.2892 52.5858 26.6245 51.7709 26.6245Z" fill="#000"/>
<path d="M45.8544 26.6245C45.0395 26.6245 44.3748 27.2892 44.3748 28.1042C44.3748 28.9184 45.0395 29.5831 45.8544 29.5831C46.6686 29.5831 47.3334 28.9184 47.3334 28.1042C47.3334 27.2892 46.6686 26.6245 45.8544 26.6245Z" fill="#000"/>
<path d="M45.8544 32.5417C45.0395 32.5417 44.3748 33.2057 44.3748 34.0207C44.3748 34.8356 45.0395 35.4996 45.8544 35.4996C46.6686 35.4996 47.3334 34.8356 47.3334 34.0207C47.3334 33.2057 46.6686 32.5417 45.8544 32.5417Z" fill="#000"/>
<path d="M45.8544 38.4583C45.0395 38.4583 44.3748 39.123 44.3748 39.9372C44.3748 40.7521 45.0395 41.4169 45.8544 41.4169C46.6686 41.4169 47.3334 40.7521 47.3334 39.9372C47.3334 39.123 46.6686 38.4583 45.8544 38.4583Z" fill="#000"/>
<path d="M57.6873 32.5417C56.8731 32.5417 56.2084 33.2057 56.2084 34.0207C56.2084 34.8356 56.8731 35.4996 57.6873 35.4996C58.5023 35.4996 59.167 34.8356 59.167 34.0207C59.167 33.2057 58.5023 32.5417 57.6873 32.5417Z" fill="#000"/>
<path d="M51.7709 32.5417C50.9559 32.5417 50.2919 33.2057 50.2919 34.0207C50.2919 34.8356 50.9559 35.4996 51.7709 35.4996C52.5858 35.4996 53.2498 34.8356 53.2498 34.0207C53.2498 33.2057 52.5858 32.5417 51.7709 32.5417Z" fill="#000"/>
<path d="M57.6873 38.4583C56.8731 38.4583 56.2084 39.123 56.2084 39.9372C56.2084 40.7521 56.8731 41.4169 57.6873 41.4169C58.5023 41.4169 59.167 40.7521 59.167 39.9372C59.167 39.123 58.5023 38.4583 57.6873 38.4583Z" fill="#000"/>
<path d="M51.7709 38.4583C50.9559 38.4583 50.2919 39.123 50.2919 39.9372C50.2919 40.7521 50.9559 41.4169 51.7709 41.4169C52.5858 41.4169 53.2498 40.7521 53.2498 39.9372C53.2498 39.123 52.5858 38.4583 51.7709 38.4583Z" fill="#000"/>
<path d="M63.6038 32.5417C62.7896 32.5417 62.1249 33.2057 62.1249 34.0207V39.9372C62.1249 40.7521 62.7896 41.4168 63.6038 41.4168C64.4188 41.4168 65.0835 40.7521 65.0835 39.9372V34.0207C65.0835 33.2057 64.4188 32.5417 63.6038 32.5417Z" fill="#000"/>
<path d="M68.0414 42.8958C68.0414 43.7108 67.3774 44.3747 66.5625 44.3747H42.8958C42.0808 44.3747 41.4169 43.7108 41.4169 42.8958V37.2272C41.5723 37.0424 41.7113 36.8576 41.8502 36.6669C41.9254 36.5685 42.0117 36.4708 42.0868 36.3724C42.3933 35.945 42.6592 35.5056 42.9071 35.061C42.9709 34.9393 43.04 34.8184 43.1038 34.7027C43.3352 34.246 43.5372 33.7781 43.7047 33.3102C43.7453 33.2005 43.7798 33.0901 43.8204 32.9804C43.9819 32.4839 44.1148 31.9807 44.202 31.4729C44.2192 31.3978 44.2245 31.3227 44.2365 31.2476C44.3229 30.6985 44.3747 30.1435 44.3747 29.5832C44.3747 29.1325 44.3349 28.6818 44.2823 28.2372C44.2711 28.15 44.2598 28.0577 44.2418 27.9653C43.9188 25.8216 42.9649 23.7651 41.4169 21.9391V4.43755C41.4169 3.6226 42.0808 2.95786 42.8958 2.95786H66.5625C67.3774 2.95786 68.0414 3.6226 68.0414 4.43755V42.8958ZM33.4198 39.4347C32.888 39.6773 32.5418 40.2031 32.5418 40.7927V44.3747H29.5831V42.5263C29.5831 42.0929 29.3924 41.6768 29.0634 41.3988C28.7336 41.1164 28.295 40.9947 27.8676 41.0638C24.9668 41.5378 22.193 41.5265 19.4657 41.0759C19.0383 41.0008 18.6049 41.1277 18.27 41.4109C17.941 41.688 17.7502 42.1041 17.7502 42.5375V44.3747H14.7916V40.7867C14.7916 40.2031 14.4506 39.6713 13.9135 39.4347C10.6312 37.973 8.13525 35.8121 6.87039 33.3447C6.62177 32.8535 6.11327 32.5418 5.55294 32.5418H4.43755C3.62259 32.5418 2.95862 31.877 2.95862 31.0621V28.1042C2.95862 27.2893 3.62259 26.6245 4.43755 26.6245H5.57022C6.12454 26.6245 6.63304 26.3128 6.88766 25.8216C7.92194 23.8049 9.77042 22.0082 12.1687 20.6269C12.862 22.4011 14.5662 23.6667 16.5657 23.6667C17.3859 23.6667 18.0446 23.0019 18.0446 22.187C18.0446 21.3728 17.3859 20.7081 16.5657 20.7081C15.5892 20.7081 14.7916 19.8939 14.7916 18.8881V13.6589C14.7916 13.4103 14.8434 13.2022 14.9133 13.0175C14.9305 12.9656 14.9478 12.9138 14.9711 12.862C15.231 12.3069 15.7222 12.047 15.907 11.9719C16.1323 11.8795 16.8368 11.6542 17.5249 12.1221C17.5361 12.1281 17.5421 12.1394 17.5534 12.1507C17.6405 12.2085 17.7269 12.2784 17.8133 12.3647L22.6962 17.3108C22.9734 17.594 23.3489 17.7502 23.7418 17.7554C30.1382 17.7727 35.731 20.0666 38.8338 23.4759C38.8398 23.4819 38.8398 23.4932 38.8511 23.4992C39.666 24.3885 40.2902 25.3477 40.7236 26.3414C40.7521 26.4165 40.7814 26.4976 40.816 26.5787C40.9714 26.9655 41.0871 27.3644 41.1855 27.7632C41.2088 27.8841 41.2434 27.9998 41.2666 28.1215C41.359 28.6067 41.4169 29.0919 41.4169 29.5832C41.4169 30.0977 41.359 30.6174 41.2546 31.1259C41.2321 31.2589 41.1795 31.3918 41.145 31.5248C41.0466 31.9003 40.9429 32.2699 40.7927 32.6342C40.7348 32.7844 40.6485 32.9346 40.5786 33.0788C40.4171 33.4258 40.2436 33.7668 40.0356 34.0958C39.9432 34.246 39.8335 34.3902 39.7299 34.5352C39.5045 34.8582 39.2612 35.1767 38.99 35.4884C37.632 37.0372 35.7542 38.4004 33.4198 39.4347ZM8.87509 13.6529C8.87509 12.515 9.72986 12.0756 9.99049 11.9719C10.1054 11.9201 10.366 11.833 10.6778 11.833C11.0473 11.833 11.4927 11.9486 11.9028 12.3647L11.9839 12.4459C11.9719 12.4917 11.9779 12.5435 11.9659 12.5901C11.8908 12.9311 11.8337 13.2773 11.8337 13.6416C11.8337 13.6416 11.8337 13.6476 11.8337 13.6529V17.4317C11.6482 17.5249 11.4807 17.6285 11.2959 17.7269C11.0646 17.8478 10.828 17.9755 10.6026 18.1025C10.3368 18.2579 10.0769 18.4262 9.82224 18.5877C9.69005 18.6741 9.56837 18.7552 9.44143 18.8416C9.26192 18.9632 9.07113 19.0729 8.89838 19.1998C8.88636 19.0962 8.87509 18.9918 8.87509 18.8881V13.6529ZM66.5625 0H42.8958C40.4457 0 38.4582 1.98743 38.4582 4.43755V19.2524C34.8469 16.6175 29.8836 14.9358 24.3772 14.8028L19.9224 10.2902C18.5531 8.89763 16.589 8.49353 14.7856 9.23337C14.3522 9.41214 13.9541 9.64874 13.6011 9.93191C12.2663 8.84054 10.499 8.56264 8.86909 9.23337C7.07243 9.96721 5.91648 11.7 5.91648 13.6529V18.8881C5.91648 19.7436 6.1651 20.5466 6.56994 21.2631C5.85339 22.0195 5.22321 22.8232 4.7087 23.6667H4.43755C1.98743 23.6667 0 25.6541 0 28.1042V31.0621C0 33.5122 1.98743 35.4996 4.43755 35.4996H4.68616C6.20566 37.9903 8.69558 40.1625 11.8337 41.7226V45.8544C11.8337 46.6686 12.4977 47.3333 13.3126 47.3333H19.2291C20.0441 47.3333 20.7081 46.6686 20.7081 45.8544V44.2245C22.6557 44.4213 24.6025 44.4326 26.6253 44.2185V45.8544C26.6253 46.6686 27.2893 47.3333 28.1042 47.3333H34.0207C34.8356 47.3333 35.5004 46.6686 35.5004 45.8544V41.7286C36.5865 41.1915 37.5569 40.5726 38.4582 39.9139V42.8958C38.4582 45.3459 40.4457 47.3333 42.8958 47.3333H66.5625C69.0126 47.3333 71 45.3459 71 42.8958V4.43755C71 1.98743 69.0126 0 66.5625 0Z" fill="#000"/>
<path d="M13.3126 23.6666H10.354C9.53979 23.6666 8.87506 24.3306 8.87506 25.1456C8.87506 25.9605 9.53979 26.6245 10.354 26.6245H13.3126C14.1268 26.6245 14.7915 25.9605 14.7915 25.1456C14.7915 24.3306 14.1268 23.6666 13.3126 23.6666Z" fill="#000"/>
<path d="M22.1878 28.1042C21.3728 28.1042 20.7081 27.4394 20.7081 26.6245C20.7081 25.8103 21.3728 25.1456 22.1878 25.1456V28.1042ZM26.6253 32.5417C26.6253 33.3559 25.9606 34.0206 25.1456 34.0206V31.062C25.9606 31.062 26.6253 31.7268 26.6253 32.5417ZM28.1042 25.1456C28.9192 25.1456 29.5832 24.4808 29.5832 23.6666C29.5832 22.8517 28.9192 22.1869 28.1042 22.1869H25.1456C25.1456 21.3727 24.4816 20.708 23.6667 20.708C22.8517 20.708 22.1878 21.3727 22.1878 22.1869C19.7376 22.1869 17.7502 24.1751 17.7502 26.6245C17.7502 29.0746 19.7376 31.062 22.1878 31.062V34.0206H19.2291C18.4142 34.0206 17.7502 34.6854 17.7502 35.4996C17.7502 36.3145 18.4142 36.9793 19.2291 36.9793H22.1878C22.1878 37.7935 22.8517 38.4582 23.6667 38.4582C24.4816 38.4582 25.1456 37.7935 25.1456 36.9793C27.5957 36.9793 29.5832 34.9911 29.5832 32.5417C29.5832 30.0916 27.5957 28.1042 25.1456 28.1042V25.1456H28.1042Z" fill="#000"/>
</svg>
